<svg xmlns="http://www.w3.org/2000/svg" width="24" height="24" viewBox="0 0 24 24" fill="none">
  <path d="M12 9.25a2.75 2.75 0 1 1 0 5.5 2.75 2.75 0 0 1 0-5.5Z" stroke="currentColor" stroke-width="1.6" />
  <path d="M4.75 12.54a7.34 7.34 0 0 1 0-1.08l1.52-.37a1 1 0 0 0 .72-.62 1 1 0 0 0-.12-.95L5.9 8.65a7.36 7.36 0 0 1 1.54-1.54l1.87 0.97a1 1 0 0 0 .95.12 1 1 0 0 0 .62-.72l.36-1.52a7.34 7.34 0 0 1 1.08 0l.37 1.52a1 1 0 0 0 .62.72 1 1 0 0 0 .95-.12l1.87-.97a7.36 7.36 0 0 1 1.54 1.54l-.97 1.87a1 1 0 0 0-.12.95 1 1 0 0 0 .72.62l1.52.36a7.34 7.34 0 0 1 0 1.08l-1.52.37a1 1 0 0 0-.72.62 1 1 0 0 0 .12.95l.97 1.87a7.36 7.36 0 0 1-1.54 1.54l-1.87-.97a1 1 0 0 0-.95-.12 1 1 0 0 0-.62.72l-.36 1.52a7.34 7.34 0 0 1-1.08 0l-.37-1.52a1 1 0 0 0-.62-.72 1 1 0 0 0-.95.12l-1.87.97a7.36 7.36 0 0 1-1.54-1.54l.97-1.87a1 1 0 0 0 .12-.95 1 1 0 0 0-.72-.62l-1.52-.36Z" stroke="currentColor" stroke-width="1.6" stroke-linecap="round" stroke-linejoin="round" />
</svg>
